<svg width="30" height="30" viewBox="0 0 30 30" fill="#004B93" xmlns="http://www.w3.org/2000/svg">
    <mask id="path-1-inside-1_601_15" fill="#004B93">
        <path d="M3 4.93707C3.21 4.83207 3.462 4.71582 3.7545 4.5977C5.20861 4.02462 6.72535 3.73869 8.25 3.75022C9.77465 3.73869 11.2914 4.02462 12.7455 4.5977C13.038 4.71582 13.29 4.83207 13.5 4.93707V25.3366C11.7985 24.6885 10.0287 24.3642 8.25 24.3747C6.06 24.3747 4.2765 24.8397 3 25.3366V4.93707ZM15 1.65965C14.5649 1.42068 14.1204 1.20978 13.668 1.02779C11.9158 0.334873 10.0878 -0.0117939 8.25 0.000316442C5.961 0.000316442 4.1175 0.508428 2.832 1.02779C2.3202 1.23286 1.81878 1.47642 1.3305 1.75715C1.149 1.86206 0.970401 1.97462 0.795 2.09464L0.7575 2.12089L0.744 2.13026L0.7395 2.13401C0.7365 2.13776 0.3675 2.40963 0.735 2.13776C0.511084 2.30371 0.325572 2.53964 0.196704 2.82235C0.0678347 3.10507 4.54014e-05 3.42484 0 3.75022V28.1246C4.61714e-05 28.4555 0.0701665 28.7806 0.203238 29.0667C0.33631 29.3528 0.527591 29.5897 0.757651 29.7535C0.987712 29.9173 1.24835 30.0021 1.5131 29.9992C1.77785 29.9963 2.03726 29.9058 2.265 29.7371L2.2575 29.7427L2.262 29.7408L2.2635 29.7389L2.319 29.7014C2.3745 29.6639 2.466 29.6077 2.592 29.5327C2.847 29.3865 3.237 29.1802 3.7545 28.9702C5.20869 28.3978 6.72543 28.1125 8.25 28.1246C9.77457 28.1125 11.2913 28.3978 12.7455 28.9702C13.1417 29.1283 13.5299 29.3162 13.908 29.5327C14.0212 29.5983 14.1328 29.6683 14.2425 29.7427M14.2425 29.7427L14.238 29.7408L14.2365 29.7389C14.7075 30.0858 15.2925 30.0858 15.7635 29.7389L15.819 29.7014C15.8745 29.6639 15.966 29.6077 16.092 29.5327C16.4701 29.3162 16.8583 29.1283 17.2545 28.9702C18.7087 28.3978 20.2254 28.1125 21.75 28.1246C23.2746 28.1125 24.7913 28.3978 26.2455 28.9702C26.6417 29.1283 27.0299 29.3162 27.408 29.5327C27.5192 29.5972 27.6287 29.666 27.7365 29.7389C27.9643 29.9073 28.2237 29.9974 28.4884 29.9999C28.753 30.0025 29.0135 29.9175 29.2434 29.7536C29.4732 29.5896 29.6643 29.3526 29.7972 29.0665C29.9301 28.7804 30.0001 28.4554 30 28.1246V3.75022C30 3.42484 29.9322 3.10507 29.8033 2.82235C29.6744 2.53964 29.4889 2.30371 29.265 2.13776L29.262 2.13589L29.256 2.13026L29.241 2.12089L29.205 2.09464C29.0296 1.97459 28.851 1.86203 28.6695 1.75715C28.1817 1.47653 27.6808 1.23297 27.1695 1.02779C25.4168 0.33468 23.5883 -0.0119892 21.75 0.000316442C19.4625 0.000316442 17.6175 0.508428 16.332 1.02779C15.8795 1.20932 15.4349 1.42023 15 1.65965M27 4.93707V25.3366C25.2985 24.6885 23.5287 24.3642 21.75 24.3747C19.56 24.3747 17.7765 24.8397 16.5 25.3366V4.93707C16.71 4.83207 16.962 4.71582 17.2545 4.5977C18.7086 4.02462 20.2254 3.73869 21.75 3.75022C23.2746 3.73869 24.7914 4.02462 26.2455 4.5977C26.538 4.71582 26.79 4.83207 27 4.93707ZM27.735 5.36456L27.7425 5.36831H27.741L27.735 5.36456ZM27.7365 29.7389L27.741 29.7427L27.738 29.7389"/>
    </mask>
    <path d="M3 4.93707C3.21 4.83207 3.462 4.71582 3.7545 4.5977C5.20861 4.02462 6.72535 3.73869 8.25 3.75022C9.77465 3.73869 11.2914 4.02462 12.7455 4.5977C13.038 4.71582 13.29 4.83207 13.5 4.93707V25.3366C11.7985 24.6885 10.0287 24.3642 8.25 24.3747C6.06 24.3747 4.2765 24.8397 3 25.3366V4.93707ZM15 1.65965C14.5649 1.42068 14.1204 1.20978 13.668 1.02779C11.9158 0.334873 10.0878 -0.0117939 8.25 0.000316442C5.961 0.000316442 4.1175 0.508428 2.832 1.02779C2.3202 1.23286 1.81878 1.47642 1.3305 1.75715C1.149 1.86206 0.970401 1.97462 0.795 2.09464L0.7575 2.12089L0.744 2.13026L0.7395 2.13401C0.7365 2.13776 0.3675 2.40963 0.735 2.13776C0.511084 2.30371 0.325572 2.53964 0.196704 2.82235C0.0678347 3.10507 4.54014e-05 3.42484 0 3.75022V28.1246C4.61714e-05 28.4555 0.0701665 28.7806 0.203238 29.0667C0.33631 29.3528 0.527591 29.5897 0.757651 29.7535C0.987712 29.9173 1.24835 30.0021 1.5131 29.9992C1.77785 29.9963 2.03726 29.9058 2.265 29.7371L2.2575 29.7427L2.262 29.7408L2.2635 29.7389L2.319 29.7014C2.3745 29.6639 2.466 29.6077 2.592 29.5327C2.847 29.3865 3.237 29.1802 3.7545 28.9702C5.20869 28.3978 6.72543 28.1125 8.25 28.1246C9.77457 28.1125 11.2913 28.3978 12.7455 28.9702C13.1417 29.1283 13.5299 29.3162 13.908 29.5327C14.0212 29.5983 14.1328 29.6683 14.2425 29.7427M14.2425 29.7427L14.238 29.7408L14.2365 29.7389C14.7075 30.0858 15.2925 30.0858 15.7635 29.7389L15.819 29.7014C15.8745 29.6639 15.966 29.6077 16.092 29.5327C16.4701 29.3162 16.8583 29.1283 17.2545 28.9702C18.7087 28.3978 20.2254 28.1125 21.75 28.1246C23.2746 28.1125 24.7913 28.3978 26.2455 28.9702C26.6417 29.1283 27.0299 29.3162 27.408 29.5327C27.5192 29.5972 27.6287 29.666 27.7365 29.7389C27.9643 29.9073 28.2237 29.9974 28.4884 29.9999C28.753 30.0025 29.0135 29.9175 29.2434 29.7536C29.4732 29.5896 29.6643 29.3526 29.7972 29.0665C29.9301 28.7804 30.0001 28.4554 30 28.1246V3.75022C30 3.42484 29.9322 3.10507 29.8033 2.82235C29.6744 2.53964 29.4889 2.30371 29.265 2.13776L29.262 2.13589L29.256 2.13026L29.241 2.12089L29.205 2.09464C29.0296 1.97459 28.851 1.86203 28.6695 1.75715C28.1817 1.47653 27.6808 1.23297 27.1695 1.02779C25.4168 0.33468 23.5883 -0.0119892 21.75 0.000316442C19.4625 0.000316442 17.6175 0.508428 16.332 1.02779C15.8795 1.20932 15.4349 1.42023 15 1.65965M27 4.93707V25.3366C25.2985 24.6885 23.5287 24.3642 21.75 24.3747C19.56 24.3747 17.7765 24.8397 16.5 25.3366V4.93707C16.71 4.83207 16.962 4.71582 17.2545 4.5977C18.7086 4.02462 20.2254 3.73869 21.75 3.75022C23.2746 3.73869 24.7914 4.02462 26.2455 4.5977C26.538 4.71582 26.79 4.83207 27 4.93707ZM27.735 5.36456L27.7425 5.36831H27.741L27.735 5.36456ZM27.7365 29.7389L27.741 29.7427L27.738 29.7389" fill="#004B93"/>
    <path d="M3 4.93707L2.5528 4.04264L2 4.31903V4.93707H3ZM3.7545 4.5977L3.38782 3.66731L3.38004 3.67046L3.7545 4.5977ZM8.25 3.75022L8.24244 4.75019L8.25 4.75025L8.25756 4.75019L8.25 3.75022ZM12.7455 4.5977L13.12 3.67042L13.1122 3.66735L12.7455 4.5977ZM13.5 4.93707H14.5V4.31903L13.9472 4.04264L13.5 4.93707ZM13.5 25.3366L13.1441 26.2711L14.5 26.7875V25.3366H13.5ZM8.25 24.3747L8.25 25.3747L8.25588 25.3747L8.25 24.3747ZM3 25.3366H2V26.7989L3.36273 26.2684L3 25.3366ZM15 1.65965L14.5186 2.53613L15.0005 2.80087L15.4823 2.53568L15 1.65965ZM13.668 1.02779L14.0412 0.10004L14.0357 0.0978633L13.668 1.02779ZM8.25 0.000316442L8.25 1.00034L8.25659 1.00029L8.25 0.000316442ZM2.832 1.02779L3.20394 1.95605L3.2066 1.95498L2.832 1.02779ZM1.3305 1.75715L0.83208 0.890208L0.830063 0.891374L1.3305 1.75715ZM0.795 2.09464L0.230255 1.26931L0.221547 1.2754L0.795 2.09464ZM0.7575 2.12089L1.3279 2.94227L1.33095 2.94013L0.7575 2.12089ZM0.744 2.13026L0.173608 1.30889L0.137566 1.33392L0.103855 1.36201L0.744 2.13026ZM0.7395 2.13401L0.0993552 1.36576L0.0217464 1.43043L-0.0413611 1.50931L0.7395 2.13401ZM0.735 2.13776L1.33042 2.94118L0.140273 1.33383L0.735 2.13776ZM0 3.75022L-1 3.75008V3.75022H0ZM0 28.1246L-1 28.1246L-1 28.1247L0 28.1246ZM2.265 29.7371L2.86503 30.537L1.66958 28.9337L2.265 29.7371ZM2.2575 29.7427L1.65747 28.9427L2.64258 30.6656L2.2575 29.7427ZM2.262 29.7408L2.64708 30.6637L2.88293 30.5653L3.04264 30.3658L2.262 29.7408ZM2.2635 29.7389L1.70364 28.9104L1.57779 28.9954L1.48286 29.114L2.2635 29.7389ZM2.319 29.7014L1.75915 28.8728L1.75914 28.8729L2.319 29.7014ZM2.592 29.5327L2.0945 28.6652L2.08748 28.6693L2.08053 28.6734L2.592 29.5327ZM3.7545 28.9702L3.38819 28.0397L3.37849 28.0436L3.7545 28.9702ZM8.25 28.1246L8.24204 29.1246L8.25 29.1246L8.25796 29.1246L8.25 28.1246ZM12.7455 28.9702L13.1162 28.0414L13.1118 28.0397L12.7455 28.9702ZM13.908 29.5327L14.4093 28.6674L14.4049 28.6649L13.908 29.5327ZM14.2425 29.7427L13.8575 30.6656L14.8035 28.9149L14.2425 29.7427ZM14.238 29.7408L13.4571 30.3655L13.6169 30.5652L13.853 30.6637L14.238 29.7408ZM14.2365 29.7389L14.8295 28.9337L13.4556 30.3636L14.2365 29.7389ZM15.7635 29.7389L15.2036 28.9104L15.1868 28.9217L15.1705 28.9337L15.7635 29.7389ZM15.819 29.7014L15.2592 28.8728L15.2591 28.8729L15.819 29.7014ZM16.092 29.5327L15.5951 28.6649L15.5878 28.6691L15.5805 28.6734L16.092 29.5327ZM17.2545 28.9702L16.8882 28.0397L16.8838 28.0415L17.2545 28.9702ZM21.75 28.1246L21.742 29.1246L21.75 29.1246L21.758 29.1246L21.75 28.1246ZM26.2455 28.9702L26.6162 28.0414L26.6118 28.0397L26.2455 28.9702ZM27.408 29.5327L27.9099 28.6678L27.9049 28.6649L27.408 29.5327ZM27.7365 29.7389L28.3309 28.9348L28.3142 28.9224L28.297 28.9108L27.7365 29.7389ZM30 28.1246L29 28.1246L29 28.1248L30 28.1246ZM30 3.75022L31 3.75022L31 3.75008L30 3.75022ZM29.265 2.13776L29.8604 1.33435L29.8285 1.31069L29.7948 1.28964L29.265 2.13776ZM29.262 2.13589L28.5781 2.86543L28.6493 2.93225L28.7322 2.98401L29.262 2.13589ZM29.256 2.13026L29.9399 1.40072L29.8687 1.33398L29.786 1.28226L29.256 2.13026ZM29.241 2.12089L28.6518 2.92891L28.6807 2.94996L28.711 2.96889L29.241 2.12089ZM29.205 2.09464L29.7942 1.28662L29.7821 1.27784L29.7698 1.26943L29.205 2.09464ZM28.6695 1.75715L29.1698 0.8913L29.1681 0.890341L28.6695 1.75715ZM27.1695 1.02779L27.5419 0.0997171L27.5372 0.097864L27.1695 1.02779ZM21.75 0.000316442L21.75 1.00034L21.7567 1.00029L21.75 0.000316442ZM16.332 1.02779L16.7043 1.95589L16.7066 1.95498L16.332 1.02779ZM27 4.93707H28V4.31903L27.4472 4.04264L27 4.93707ZM27 25.3366L26.6441 26.2711L28 26.7875V25.3366H27ZM21.75 24.3747L21.75 25.3747L21.7559 25.3747L21.75 24.3747ZM16.5 25.3366H15.5V26.7989L16.8627 26.2684L16.5 25.3366ZM16.5 4.93707L16.0528 4.04264L15.5 4.31903V4.93707H16.5ZM17.2545 4.5977L16.8878 3.66731L16.88 3.67046L17.2545 4.5977ZM21.75 3.75022L21.7424 4.75019L21.75 4.75025L21.7576 4.75019L21.75 3.75022ZM26.2455 4.5977L26.62 3.67042L26.6122 3.66735L26.2455 4.5977ZM27.735 5.36456L28.1821 4.47007L27.205 6.21256L27.735 5.36456ZM27.7425 5.36831V6.36831L28.1896 4.47382L27.7425 5.36831ZM27.741 5.36831L27.211 6.21631L27.4542 6.36831H27.741V5.36831ZM27.741 29.7427L27.1007 30.5108L28.5222 29.1184L27.741 29.7427ZM3.4472 5.8315C3.63504 5.73758 3.86277 5.63244 4.12895 5.52495L3.38004 3.67046C3.06123 3.79921 2.78496 3.92656 2.5528 4.04264L3.4472 5.8315ZM4.12116 5.52806C5.45919 5.00072 6.84908 4.73965 8.24244 4.75019L8.25756 2.75025C6.60163 2.73772 4.95802 3.04852 3.38784 3.66735L4.12116 5.52806ZM8.25756 4.75019C9.65092 4.73965 11.0408 5.00072 12.3788 5.52806L13.1122 3.66735C11.542 3.04852 9.89837 2.73772 8.24244 2.75025L8.25756 4.75019ZM12.371 5.52495C12.6372 5.63244 12.865 5.73758 13.0528 5.8315L13.9472 4.04264C13.715 3.92655 13.4388 3.79921 13.12 3.67046L12.371 5.52495ZM12.5 4.93707V25.3366H14.5V4.93707H12.5ZM13.8559 24.402C12.0417 23.711 10.1494 23.3635 8.24412 23.3747L8.25588 25.3747C9.90802 25.365 11.5553 25.6659 13.1441 26.2711L13.8559 24.402ZM8.25 23.3747C5.91694 23.3747 4.0103 23.8702 2.63727 24.4047L3.36273 26.2684C4.5427 25.8092 6.20306 25.3747 8.25 25.3747V23.3747ZM4 25.3366V4.93707H2V25.3366H4ZM15.4814 0.78317C15.012 0.525315 14.5313 0.297221 14.0412 0.100056L13.2948 1.95552C13.7094 2.12234 14.1179 2.31604 14.5186 2.53613L15.4814 0.78317ZM14.0357 0.0978633C12.1675 -0.640952 10.2126 -1.01264 8.24341 -0.999662L8.25659 1.00029C9.96299 0.98905 11.6641 1.3107 13.3003 1.95772L14.0357 0.0978633ZM8.25 -0.999684C5.81126 -0.999684 3.84039 -0.458145 2.4574 0.100603L3.2066 1.95498C4.39461 1.475 6.11074 1.00032 8.25 1.00032V-0.999684ZM2.46006 0.0995324C1.90379 0.322422 1.36016 0.586608 0.832082 0.89021L1.82892 2.62408C2.27741 2.36624 2.73661 2.1433 3.20394 1.95605L2.46006 0.0995324ZM0.830063 0.891374C0.626334 1.00913 0.426303 1.13522 0.230287 1.26935L1.35971 2.91993C1.5145 2.81401 1.67167 2.71498 1.83094 2.62292L0.830063 0.891374ZM0.221547 1.2754L0.184047 1.30165L1.33095 2.94013L1.36845 2.91388L0.221547 1.2754ZM0.187108 1.29952L0.173608 1.30889L1.31439 2.95164L1.32789 2.94226L0.187108 1.29952ZM0.103855 1.36201L0.0993552 1.36576L1.37964 2.90227L1.38414 2.89852L0.103855 1.36201ZM-0.0413611 1.50931C-0.00736289 1.46681 0.0226504 1.43664 0.0329694 1.42633C0.0470108 1.41232 0.0587067 1.40149 0.0655347 1.39526C0.0791798 1.38282 0.0902148 1.37347 0.0949865 1.36945C0.105341 1.36073 0.113481 1.35425 0.115879 1.35235C0.121926 1.34754 0.126231 1.34425 0.12626 1.34423C0.127413 1.34334 0.126574 1.34399 0.122452 1.34709C0.114937 1.35274 0.103397 1.36136 0.0891564 1.37194C0.0610777 1.39282 0.0271607 1.41792 0.00454546 1.43461C-0.00106574 1.43875 -0.00581219 1.44225 -0.00947989 1.44495C-0.0113144 1.4463 -0.0127726 1.44737 -0.0138686 1.44817C-0.0150697 1.44905 -0.0154374 1.44932 -0.015242 1.44918C-0.0151788 1.44913 -0.0144308 1.44859 -0.013291 1.44776C-0.0127165 1.44735 -0.0116462 1.44657 -0.0102663 1.44558C-0.00921901 1.44483 -0.00629398 1.44274 -0.00248332 1.44006C-0.000636612 1.43876 0.0030196 1.4362 0.00767742 1.43302C0.009765 1.43159 0.0227427 1.42267 0.0396768 1.41202C0.0508449 1.40509 0.0857609 1.38472 0.109777 1.37178C0.18939 1.33461 1.11217 1.41679 1.56436 2.13377C1.53253 2.53719 1.30688 2.93683 1.26806 2.9766C1.25293 2.99095 1.22931 3.01221 1.22104 3.01935C1.20776 3.03067 1.19706 3.03917 1.19488 3.0409C1.19079 3.04415 1.18752 3.0467 1.18581 3.04803C1.18232 3.05075 1.1796 3.05282 1.1786 3.05358C1.17411 3.05699 1.17144 3.05896 1.17741 3.05452C1.193 3.04291 1.23756 3.00987 1.32973 2.94169L0.140273 1.33383C0.0486878 1.40159 0.00156509 1.43652 -0.0169207 1.45028C-0.0194754 1.45218 -0.0270686 1.45782 -0.0334078 1.46265C-0.03464 1.46359 -0.0375423 1.46581 -0.0411755 1.46863C-0.0429534 1.47001 -0.0462814 1.4726 -0.0504198 1.4759C-0.0526373 1.47766 -0.0633791 1.48619 -0.0766762 1.49753C-0.0849627 1.50467 -0.108591 1.52594 -0.12372 1.5403C-0.162544 1.58007 -0.388202 1.97971 -0.420032 2.38314C0.0321616 3.10012 0.954942 3.1823 1.03456 3.14513C1.05858 3.13218 1.09351 3.1118 1.10469 3.10487C1.12164 3.0942 1.13466 3.08527 1.13679 3.08381C1.14149 3.08059 1.1452 3.07799 1.14712 3.07665C1.15356 3.07212 1.15881 3.06831 1.15924 3.068C1.16099 3.06673 1.16251 3.06562 1.16351 3.0649C1.16984 3.06028 1.18088 3.05214 1.19208 3.04388C1.21615 3.02612 1.25208 2.99954 1.28255 2.97688C1.29758 2.9657 1.31249 2.95458 1.32429 2.94571C1.32983 2.94155 1.33687 2.93624 1.34358 2.93109C1.34638 2.92894 1.35288 2.92394 1.36048 2.9179C1.36365 2.91538 1.37241 2.90841 1.3832 2.89932C1.3882 2.89511 1.39941 2.8856 1.41319 2.87304C1.42009 2.86675 1.43184 2.85587 1.44593 2.8418C1.45629 2.83146 1.48634 2.80124 1.52036 2.75872L-0.0413611 1.50931ZM0.139581 1.33435C-0.235471 1.6123 -0.522339 1.98882 -0.713224 2.40759L1.10663 3.23712C1.17348 3.09046 1.25764 2.99512 1.33042 2.94118L0.139581 1.33435ZM-0.713224 2.40759C-0.904233 2.82663 -0.999936 3.28855 -1 3.75008L1 3.75036C1.00003 3.56112 1.0399 3.38351 1.10663 3.23712L-0.713224 2.40759ZM-1 3.75022V28.1246H1V3.75022H-1ZM-1 28.1247C-0.999935 28.5941 -0.900976 29.0638 -0.703479 29.4884L1.10996 28.6449C1.04131 28.4973 1.00003 28.317 1 28.1245L-1 28.1247ZM-0.703479 29.4884C-0.506106 29.9128 -0.209468 30.2925 0.177699 30.5682L1.3376 28.9389C1.26465 28.8869 1.17873 28.7928 1.10996 28.6449L-0.703479 29.4884ZM0.177699 30.5682C0.567962 30.846 1.03318 31.0045 1.52402 30.9991L1.50218 28.9992C1.46352 28.9996 1.40746 28.9886 1.3376 28.9389L0.177699 30.5682ZM1.52402 30.9991C2.01466 30.9937 2.47608 30.8253 2.86042 30.5405L1.66958 28.9337C1.59845 28.9864 1.54103 28.9988 1.50218 28.9992L1.52402 30.9991ZM1.66497 28.9371L1.65747 28.9427L2.85753 30.5427L2.86503 30.537L1.66497 28.9371ZM2.64258 30.6656L2.64708 30.6637L1.87692 28.8179L1.87242 28.8198L2.64258 30.6656ZM3.04264 30.3658L3.04414 30.3639L1.48286 29.114L1.48136 29.1158L3.04264 30.3658ZM2.82336 30.5675L2.87886 30.53L1.75914 28.8729L1.70364 28.9104L2.82336 30.5675ZM2.87885 30.53C2.9077 30.5105 2.97639 30.4676 3.10347 30.392L2.08053 28.6734C1.95561 28.7478 1.8413 28.8173 1.75915 28.8728L2.87885 30.53ZM3.0895 30.4002C3.31349 30.2717 3.66264 30.0867 4.13051 29.8968L3.37849 28.0436C2.81136 28.2737 2.38051 28.5012 2.0945 28.6652L3.0895 30.4002ZM4.12079 29.9007C5.45888 29.374 6.84876 29.1135 8.24204 29.1246L8.25796 27.1246C6.60211 27.1115 4.9585 27.4216 3.38821 28.0397L4.12079 29.9007ZM8.25796 29.1246C9.65124 29.1135 11.0411 29.374 12.3792 29.9007L13.1118 28.0397C11.5415 27.4216 9.89789 27.1115 8.24204 27.1246L8.25796 29.1246ZM12.3748 29.899C12.7266 30.0394 13.0727 30.2067 13.4111 30.4005L14.4049 28.6649C13.9871 28.4256 13.5568 28.2173 13.1162 28.0415L12.3748 29.899ZM13.4067 30.398C13.4993 30.4516 13.591 30.5091 13.6815 30.5705L14.8035 28.9149C14.6746 28.8275 14.5432 28.745 14.4093 28.6674L13.4067 30.398ZM14.6275 28.8198L14.623 28.8179L13.853 30.6637L13.8575 30.6656L14.6275 28.8198ZM15.0189 29.1161L15.0174 29.1142L13.4556 30.3636L13.4571 30.3655L15.0189 29.1161ZM13.6435 30.5442C14.4672 31.1507 15.5328 31.1507 16.3565 30.5442L15.1705 28.9337C15.0975 28.9875 15.0393 28.9991 15 28.9991C14.9607 28.9991 14.9025 28.9875 14.8295 28.9337L13.6435 30.5442ZM16.3234 30.5675L16.3789 30.53L15.2591 28.8729L15.2036 28.9104L16.3234 30.5675ZM16.3788 30.53C16.4077 30.5105 16.4764 30.4676 16.6035 30.392L15.5805 28.6734C15.4556 28.7477 15.3413 28.8173 15.2592 28.8728L16.3788 30.53ZM16.5889 30.4005C16.9273 30.2067 17.2734 30.0394 17.6252 29.899L16.8838 28.0415C16.4432 28.2173 16.0129 28.4256 15.5951 28.6649L16.5889 30.4005ZM17.6208 29.9007C18.9589 29.374 20.3488 29.1135 21.742 29.1246L21.758 27.1246C20.1021 27.1115 18.4585 27.4216 16.8882 28.0397L17.6208 29.9007ZM21.758 29.1246C23.1512 29.1135 24.5411 29.374 25.8792 29.9007L26.6118 28.0397C25.0415 27.4216 23.3979 27.1115 21.742 27.1246L21.758 29.1246ZM25.8748 29.899C26.2266 30.0394 26.5727 30.2067 26.9111 30.4005L27.9049 28.6649C27.4871 28.4256 27.0568 28.2173 26.6162 28.0415L25.8748 29.899ZM26.9061 30.3976C26.997 30.4504 27.0871 30.5069 27.176 30.5671L28.297 28.9108C28.1704 28.8251 28.0413 28.744 27.9099 28.6678L26.9061 30.3976ZM27.1421 30.5431C27.5267 30.8274 27.9882 30.9951 28.4787 30.9999L28.4981 29C28.4592 28.9996 28.4019 28.9873 28.3309 28.9348L27.1421 30.5431ZM28.4787 30.9999C28.9693 31.0047 29.4342 30.8458 29.824 30.5677L28.6627 28.9394C28.5928 28.9893 28.5367 29.0004 28.4981 29L28.4787 30.9999ZM29.824 30.5677C30.2108 30.2919 30.5071 29.912 30.7041 29.4877L28.8903 28.6452C28.8216 28.7931 28.7357 28.8874 28.6627 28.9394L29.824 30.5677ZM30.7041 29.4877C30.9014 29.0632 31.0001 28.5936 31 28.1244L29 28.1248C29 28.3173 28.9588 28.4976 28.8903 28.6452L30.7041 29.4877ZM31 28.1246V3.75022H29V28.1246H31ZM31 3.75008C30.9999 3.28855 30.9042 2.82663 30.7132 2.40759L28.8934 3.23712C28.9601 3.38351 29 3.56112 29 3.75036L31 3.75008ZM30.7132 2.40759C30.5223 1.98882 30.2355 1.6123 29.8604 1.33435L28.6696 2.94118C28.7424 2.99511 28.8265 3.09046 28.8934 3.23712L30.7132 2.40759ZM29.7948 1.28964L29.7918 1.28777L28.7322 2.98401L28.7352 2.98588L29.7948 1.28964ZM29.9459 1.40634L29.9399 1.40072L28.5721 2.85981L28.5781 2.86543L29.9459 1.40634ZM29.786 1.28226L29.771 1.27288L28.711 2.96889L28.726 2.97827L29.786 1.28226ZM29.8302 1.31287L29.7942 1.28662L28.6158 2.90266L28.6518 2.92891L29.8302 1.31287ZM29.7698 1.26943C29.5738 1.13522 29.3736 1.00908 29.1698 0.891302L28.1692 2.62299C28.3284 2.71497 28.4855 2.81396 28.6402 2.91985L29.7698 1.26943ZM29.1681 0.890341C28.6406 0.586875 28.0976 0.322714 27.5419 0.0997289L26.7971 1.95585C27.264 2.14322 27.7228 2.36618 28.1709 2.62395L29.1681 0.890341ZM27.5372 0.097864C25.6685 -0.641158 23.713 -1.01285 21.7433 -0.999661L21.7567 1.00029C23.4636 0.988868 25.1652 1.31052 26.8018 1.95772L27.5372 0.097864ZM21.75 -0.999684C19.3128 -0.999684 17.3404 -0.458168 15.9574 0.100603L16.7066 1.95498C17.8946 1.47502 19.6122 1.00032 21.75 1.00032V-0.999684ZM15.9597 0.0996945C15.4688 0.29661 14.9875 0.524989 14.5177 0.783622L15.4823 2.53568C15.8823 2.31547 16.2902 2.12204 16.7043 1.95589L15.9597 0.0996945ZM26 4.93707V25.3366H28V4.93707H26ZM27.3559 24.402C25.5417 23.711 23.6494 23.3635 21.7441 23.3747L21.7559 25.3747C23.408 25.365 25.0553 25.6659 26.6441 26.2711L27.3559 24.402ZM21.75 23.3747C19.4169 23.3747 17.5103 23.8702 16.1373 24.4047L16.8627 26.2684C18.0427 25.8092 19.7031 25.3747 21.75 25.3747L21.75 23.3747ZM17.5 25.3366V4.93707H15.5V25.3366H17.5ZM16.9472 5.8315C17.135 5.73758 17.3628 5.63244 17.629 5.52495L16.88 3.67046C16.5612 3.79921 16.285 3.92655 16.0528 4.04264L16.9472 5.8315ZM17.6212 5.52806C18.9592 5.00072 20.3491 4.73965 21.7424 4.75019L21.7576 2.75025C20.1016 2.73772 18.458 3.04852 16.8878 3.66735L17.6212 5.52806ZM21.7576 4.75019C23.1509 4.73965 24.5408 5.00072 25.8788 5.52806L26.6122 3.66735C25.042 3.04852 23.3984 2.73772 21.7424 2.75025L21.7576 4.75019ZM25.871 5.52495C26.1372 5.63244 26.365 5.73758 26.5528 5.8315L27.4472 4.04264C27.215 3.92655 26.9388 3.79921 26.62 3.67046L25.871 5.52495ZM27.2879 6.25904L27.2954 6.26279L28.1896 4.47382L28.1821 4.47007L27.2879 6.25904ZM27.7425 4.36831H27.741V6.36831H27.7425V4.36831ZM28.271 4.5203L28.265 4.51655L27.205 6.21256L27.211 6.21631L28.271 4.5203ZM27.0962 30.5071L27.1007 30.5108L28.3813 28.9746L28.3768 28.9708L27.0962 30.5071ZM28.5222 29.1184L28.5192 29.1146L26.9568 30.3633L26.9598 30.367L28.5222 29.1184Z" fill="#004B93" mask="url(#path-1-inside-1_601_15)"/>
</svg>
