<svg width="32" height="30" viewBox="0 0 32 30" fill="none" xmlns="http://www.w3.org/2000/svg">
    <path d="M22.3667 4.87009L27.3778 10.1563C27.5889 10.379 27.5889 10.7423 27.3778 10.965L15.2444 23.7644L10.0889 24.368C9.4 24.4501 8.81667 23.8347 8.89444 23.108L9.46667 17.6695L21.6 4.87009C21.8111 4.64739 22.1556 4.64739 22.3667 4.87009ZM31.3667 3.52803L28.6556 0.668099C27.8111 -0.2227 26.4389 -0.2227 25.5889 0.668099L23.6222 2.74272C23.4111 2.96542 23.4111 3.32878 23.6222 3.55148L28.6333 8.83766C28.8444 9.06036 29.1889 9.06036 29.4 8.83766L31.3667 6.76304C32.2111 5.86638 32.2111 4.41883 31.3667 3.52803ZM21.3333 20.2833V26.2493H3.55556V7.4956H16.3222C16.5 7.4956 16.6667 7.41942 16.7944 7.29049L19.0167 4.94628C19.4389 4.50088 19.1389 3.74487 18.5444 3.74487H2.66667C1.19444 3.74487 0 5.00488 0 6.55792V27.187C0 28.74 1.19444 30 2.66667 30H22.2222C23.6944 30 24.8889 28.74 24.8889 27.187V17.9391C24.8889 17.312 24.1722 17.0014 23.75 17.4409L21.5278 19.7851C21.4056 19.9199 21.3333 20.0957 21.3333 20.2833Z" fill="#FFFFFF"/>
</svg>
