<svg width="1379" height="825" viewBox="0 0 1379 825" fill="none" xmlns="http://www.w3.org/2000/svg">
    <path d="M1180.65 338.305C1172.8 338.305 1165.06 338.791 1157.44 339.57C1163.44 322.533 1166.79 304.523 1166.79 285.831C1166.79 181.662 1066.69 97.2565 943.156 97.2565C890.623 97.2565 842.363 112.638 804.147 138.242C752.77 56.0758 650.591 0 532.711 0C363.338 0 226.062 115.754 226.062 258.572C226.062 263.732 226.293 268.794 226.639 273.856C98.9453 287.097 0 378.804 0 489.982C0 608.948 113.262 705.621 253.771 707.665C300.877 776.592 394.627 823.906 503.039 824.587C607.873 825.269 699.66 782.141 749.306 717.498C789.369 754.395 846.75 777.76 910.828 777.76C1002.5 777.76 1081.01 730.154 1113.57 662.785C1134.58 669.113 1156.98 672.813 1180.53 672.813C1290.1 672.813 1378.88 597.947 1378.88 505.559C1379 413.17 1290.21 338.305 1180.65 338.305Z" fill="url(#paint0_radial_613_17)"/>
    <g opacity="0.2">
        <path d="M503.159 811.442C404.444 811.442 314.62 768.022 268.784 701.042C265.782 696.564 260.125 693.449 254.121 693.351C123.541 691.404 17.3223 600.184 17.3223 490.174C17.3223 387.758 108.186 301.113 228.721 288.651C237.842 287.678 244.423 280.96 243.846 273.269C243.499 268.402 243.269 263.534 243.269 258.666C243.269 124.123 373.041 14.6975 532.6 14.6975C640.32 14.6975 738.457 64.6401 788.68 145.152C791.105 149.046 795.377 151.772 800.457 152.648C801.611 152.843 802.881 152.94 804.036 152.94C807.961 152.94 811.771 151.869 814.773 149.727C851.719 124.999 896.054 111.857 943.044 111.857C1056.88 111.857 1149.36 189.934 1149.36 285.828C1149.36 302.476 1146.48 319.123 1140.7 335.381C1139.09 340.054 1140.36 345.214 1144.05 348.913C1147.4 352.223 1152.25 354.073 1157.33 354.073C1158.02 354.073 1158.71 354.073 1159.29 353.976C1167.14 353.197 1174.07 352.807 1180.42 352.807C1280.17 352.807 1361.45 421.247 1361.45 505.458C1361.45 589.669 1280.29 658.109 1180.42 658.109C1159.87 658.109 1139.32 654.994 1119.23 648.958C1117.27 648.374 1115.3 648.082 1113.34 648.082C1106.53 648.082 1100.06 651.489 1097.29 657.136C1066.12 721.487 992.805 763.057 910.486 763.057C854.143 763.057 799.879 742.807 761.664 707.468C758.315 704.45 753.697 702.697 748.848 702.697H747.462C742.152 703.087 737.302 706.202 734.416 710.096C686.733 772.111 598.987 811.344 505.237 811.344H503.159V811.442Z" fill="url(#paint1_radial_613_17)"/>
    </g>
    <defs>
        <radialGradient id="paint0_radial_613_17" cx="0" cy="0" r="1" gradientUnits="userSpaceOnUse" gradientTransform="translate(375.409 -27.1641) scale(1317.77 1121.02)">
            <stop offset="0.1402" stop-color="#E3F2FD" stop-opacity="0.12"/>
            <stop offset="1" stop-color="#90CAF9"/>
        </radialGradient>
        <radialGradient id="paint1_radial_613_17" cx="0" cy="0" r="1" gradientUnits="userSpaceOnUse" gradientTransform="translate(383.27 -11.5491) scale(1284.56 1083.16)">
            <stop offset="0.1402" stop-color="#E3F2FD" stop-opacity="0.12"/>
            <stop offset="1" stop-color="#90CAF9"/>
        </radialGradient>
    </defs>
</svg>
