<svg width="38" height="30" viewBox="0 0 38 30" fill="none" xmlns="http://www.w3.org/2000/svg">
    <path d="M0 3.75C0 2.75544 0.395088 1.80161 1.09835 1.09835C1.80161 0.395088 2.75544 0 3.75 0H20.625C21.6196 0 22.5734 0.395088 23.2766 1.09835C23.9799 1.80161 24.375 2.75544 24.375 3.75V7.5C24.375 7.99728 24.1775 8.47419 23.8258 8.82582C23.4742 9.17746 22.9973 9.375 22.5 9.375C22.0027 9.375 21.5258 9.17746 21.1742 8.82582C20.8225 8.47419 20.625 7.99728 20.625 7.5V3.75H3.75V26.25H20.625V22.5C20.625 22.0027 20.8225 21.5258 21.1742 21.1742C21.5258 20.8225 22.0027 20.625 22.5 20.625C22.9973 20.625 23.4742 20.8225 23.8258 21.1742C24.1775 21.5258 24.375 22.0027 24.375 22.5V26.25C24.375 27.2446 23.9799 28.1984 23.2766 28.9016C22.5734 29.6049 21.6196 30 20.625 30H3.75C2.75544 30 1.80161 29.6049 1.09835 28.9016C0.395088 28.1984 0 27.2446 0 26.25V3.75ZM28.6744 8.04938C29.026 7.69787 29.5028 7.5004 30 7.5004C30.4972 7.5004 30.974 7.69787 31.3256 8.04938L36.9506 13.6744C37.3021 14.026 37.4996 14.5028 37.4996 15C37.4996 15.4972 37.3021 15.974 36.9506 16.3256L31.3256 21.9506C30.972 22.2922 30.4984 22.4812 30.0067 22.4769C29.5151 22.4726 29.0449 22.2754 28.6972 21.9278C28.3496 21.5801 28.1524 21.1099 28.1481 20.6183C28.1438 20.1266 28.3328 19.653 28.6744 19.2994L31.0988 16.875H13.125C12.6277 16.875 12.1508 16.6775 11.7992 16.3258C11.4475 15.9742 11.25 15.4973 11.25 15C11.25 14.5027 11.4475 14.0258 11.7992 13.6742C12.1508 13.3225 12.6277 13.125 13.125 13.125H31.0988L28.6744 10.7006C28.3229 10.349 28.1254 9.87218 28.1254 9.375C28.1254 8.87782 28.3229 8.40099 28.6744 8.04938Z" fill="#004B93"/>
</svg>
