<svg width="447" height="432" viewBox="0 0 447 432" fill="none" xmlns="http://www.w3.org/2000/svg">
    <path fill-rule="evenodd" clip-rule="evenodd" d="M74.5 0L223.5 124.615V423.692L74.5 324V0Z" fill="#D8D8D8"/>
    <path fill-rule="evenodd" clip-rule="evenodd" d="M223.5 124.615L372.5 0V324L223.5 423.692V124.615Z" fill="#D8D8D8"/>
    <path fill-rule="evenodd" clip-rule="evenodd" d="M44.6997 33.2305L223.5 124.615V423.692L44.6997 357.23V33.2305Z" fill="#B1B1B1"/>
    <path fill-rule="evenodd" clip-rule="evenodd" d="M223.5 124.615L402.3 33.2305V357.23L223.5 423.692V124.615Z" fill="#B1B1B1"/>
    <path fill-rule="evenodd" clip-rule="evenodd" d="M14.8999 49.8462L223.5 124.615V423.692L14.8999 373.846V49.8462Z" fill="#D8D8D8"/>
    <path fill-rule="evenodd" clip-rule="evenodd" d="M223.5 124.615L432.1 49.8462V373.846L223.5 423.692V124.615Z" fill="#D8D8D8"/>
    <path fill-rule="evenodd" clip-rule="evenodd" d="M0 74.7695L223.5 124.616V432L0 382.154V74.7695Z" fill="#507BCE"/>
    <path fill-rule="evenodd" clip-rule="evenodd" d="M223.5 124.616L447 74.7695V382.154L223.5 432V124.616Z" fill="#325AA6"/>
    <path fill-rule="evenodd" clip-rule="evenodd" d="M283.101 265.846L394.851 240.923V324L283.101 348.923V265.846Z" fill="#DFCC00"/>
</svg>
