<svg width="2152" height="876" viewBox="0 0 2152 876" fill="none" xmlns="http://www.w3.org/2000/svg">
    <path d="M0 428.629L111.606 391L440.702 441.172L867.096 428.629L1084.59 457.897L2008.91 391L2134.83 428.629L2152 499.707L2126.24 834.19L1808.6 809.103L1476.64 863.457L781.245 834.19L340.543 876L57.234 834.19L40.0638 641.862L0 428.629Z" fill="#C8E0F3" fill-opacity="0.5"/>
    <path fill-rule="evenodd" clip-rule="evenodd" d="M1788 186L1738.92 310.227L1706 415.25H1693L1743.33 186L1788 186Z" fill="#997659"/>
    <path fill-rule="evenodd" clip-rule="evenodd" d="M1797.88 186C1798.41 229.654 1806.03 288.427 1807.25 291.149C1808.06 292.963 1836.08 316.032 1891.32 360.358L1882.37 369.939C1817.19 331.935 1783.1 310.399 1780.08 305.331C1775.55 297.728 1760.83 227.763 1749 186H1797.88Z" fill="#B28B67"/>
    <path fill-rule="evenodd" clip-rule="evenodd" d="M1892.52 357.159C1895.53 358.222 1897.6 359.23 1898.74 360.183C1900.12 361.342 1901.94 363.264 1904.2 365.948C1902.86 367.55 1890.77 381.952 1867.95 409.154C1863.3 407.162 1861.84 404.833 1863.57 402.165C1865.3 399.498 1866.72 397.264 1867.83 395.464L1875.72 367.87C1875.88 367.339 1876.43 367.032 1876.96 367.184C1876.97 367.186 1876.98 367.189 1876.99 367.192L1881.2 368.528C1884.13 367.166 1886.18 365.784 1887.35 364.384C1888.3 363.247 1889.16 361.29 1889.93 358.515L1889.93 358.515C1890.22 357.45 1891.32 356.824 1892.39 357.117C1892.43 357.129 1892.48 357.144 1892.52 357.159Z" fill="#C5CFD6"/>
    <path fill-rule="evenodd" clip-rule="evenodd" d="M1711.32 410.402C1712.44 413.388 1713 415.623 1713 417.106C1713 418.909 1712.7 421.54 1712.1 425C1710.01 425 1691.21 425 1655.7 425C1654.23 420.155 1655.08 417.539 1658.24 417.152C1661.39 416.766 1664.02 416.417 1666.1 416.106L1692.32 404.419C1692.82 404.194 1693.42 404.421 1693.64 404.925C1693.64 404.934 1693.65 404.942 1693.65 404.951L1695.34 409.039C1698.26 410.403 1700.64 411.085 1702.46 411.085C1703.95 411.085 1706 410.485 1708.62 409.286L1708.62 409.285C1709.62 408.825 1710.81 409.266 1711.27 410.27C1711.29 410.313 1711.31 410.357 1711.32 410.402Z" fill="#C5CFD6"/>
    <path fill-rule="evenodd" clip-rule="evenodd" d="M1755 404.433L1693.2 397.725L1739 186H1794.36L1755 404.433Z" fill="#A4C2DC"/>
    <path fill-rule="evenodd" clip-rule="evenodd" d="M1878.54 344.9L1838 392.886C1795.3 346.25 1770.41 315.82 1763.32 301.596C1756.23 287.372 1749.86 248.84 1744.2 186H1806.52C1809.61 241.284 1811.69 270.212 1812.77 272.785C1813.85 275.357 1835.77 299.396 1878.54 344.9Z" fill="#BED6EC"/>
    <path fill-rule="evenodd" clip-rule="evenodd" d="M1777.52 51.4901C1782.13 46.0814 1785.25 39.4529 1784.73 32.0255C1783.22 10.625 1753.43 15.3328 1747.64 26.1339C1741.85 36.9351 1742.53 64.333 1750.02 66.2635C1753.01 67.0333 1759.37 65.1475 1765.85 61.2443L1761.78 90H1785.78L1777.52 51.4901Z" fill="#B28B67"/>
    <path fill-rule="evenodd" clip-rule="evenodd" d="M1737.01 11.1604C1737.5 9.4135 1738.84 7.91776 1740.64 7.47401C1741.08 7.36637 1741.53 7.3229 1741.98 7.34102C1742.14 7.34746 1742.19 7.39396 1742.26 7.2812C1742.32 7.1976 1742.32 6.99336 1742.34 6.89511C1742.41 6.58961 1742.5 6.28791 1742.61 5.99403C1742.99 4.99168 1743.62 4.10458 1744.39 3.3573C1745.82 1.95928 1747.75 0.994424 1749.75 0.819868C1750.85 0.724381 1751.94 0.902681 1752.98 1.25967C1753.51 1.44447 1754.03 1.67459 1754.54 1.929C1754.69 2.00558 1755.19 2.38063 1755.34 2.35633C1755.51 2.32954 1755.85 1.90884 1755.99 1.80324C1757.69 0.497879 1759.79 -0.0153471 1761.91 0.000348467C1764.3 0.0180142 1766.61 0.137537 1768.6 1.59572C1769.02 1.90444 1769.43 2.24245 1769.81 2.59833C1770.01 2.78569 1770.21 2.98008 1770.39 3.18255C1770.5 3.3047 1770.61 3.4296 1770.72 3.55786C1770.9 3.77556 1770.87 3.84708 1771.12 3.69518C1772.08 3.11189 1773.19 2.83908 1774.31 2.9768C1774.98 3.05862 1775.63 3.2584 1776.24 3.52135C1776.45 3.61086 1776.93 3.96792 1777.16 3.9714C1777.38 3.97481 1777.86 3.64383 1778.08 3.5597C1779.32 3.10519 1780.64 2.99315 1781.94 3.20317C1783.27 3.41989 1784.58 3.95249 1785.71 4.68847C1786.26 5.04251 1786.73 5.43477 1787.11 5.96119C1787.28 6.18848 1787.43 6.42891 1787.61 6.63965C1787.72 6.76305 1787.94 6.88966 1788 7.04583C1787.96 6.95231 1789.46 6.37598 1789.6 6.33913C1790.35 6.14284 1791.12 6.18264 1791.85 6.42484C1793.24 6.88027 1794.43 7.9016 1795.4 8.94874C1795.91 9.48659 1796.35 10.0811 1796.72 10.7145C1796.9 11.0179 1797.06 11.33 1797.21 11.6487C1797.28 11.8031 1797.33 11.9962 1797.43 12.1353C1797.55 12.3146 1797.63 12.318 1797.86 12.3961C1798.99 12.7929 1800.02 13.4645 1800.81 14.3721C1801.6 15.2902 1802.12 16.4209 1802.34 17.6116C1802.35 17.6817 1802.36 17.9724 1802.4 18.0103C1802.45 18.0626 1802.68 18.0395 1802.77 18.0496C1803.07 18.0846 1803.36 18.1367 1803.65 18.2059C1804.19 18.3335 1804.72 18.5211 1805.21 18.7666C1807.15 19.7235 1808.53 21.5175 1809.21 23.5361C1809.92 25.6546 1809.91 28.0816 1809.06 30.1605C1808.92 30.4963 1808.76 30.8222 1808.56 31.1305C1808.45 31.3198 1808.41 31.3203 1808.49 31.5189C1808.57 31.7398 1808.73 31.9545 1808.83 32.1703C1809.16 32.8748 1809.39 33.6219 1809.53 34.3851C1809.77 35.6368 1809.89 36.9523 1809.66 38.2136C1809.55 38.7993 1809.35 39.3718 1809.06 39.8934C1808.92 40.1594 1808.74 40.4116 1808.55 40.645C1808.44 40.7661 1808.34 40.8818 1808.22 40.9927C1808.16 41.056 1808.07 41.1114 1808.02 41.1822C1807.88 41.3546 1807.86 41.2128 1807.93 41.4661C1808.02 41.8201 1808.24 42.1694 1808.38 42.5139C1808.51 42.8689 1808.64 43.2288 1808.75 43.5923C1808.99 44.3282 1809.18 45.0774 1809.3 45.8395C1809.54 47.3028 1809.5 48.8619 1808.81 50.2048C1808.51 50.7793 1808.09 51.2832 1807.57 51.6752C1807.32 51.8669 1807.05 52.0322 1806.76 52.168C1806.61 52.2378 1806.42 52.2678 1806.36 52.4101C1806.28 52.5631 1806.39 52.867 1806.42 53.038C1806.63 54.5263 1806.74 56.0889 1806.29 57.5473C1805.89 58.8907 1804.99 60.0767 1803.82 60.8619C1801.56 62.3852 1798.52 62.2993 1796.14 61.0798C1795.53 60.7619 1794.95 60.3672 1794.43 59.9017C1793.11 61.6722 1790.41 61.6162 1788.49 61.1117C1786.09 60.4832 1784.17 58.818 1783.06 56.63C1781.55 58.473 1778.37 57.875 1777.32 55.8757C1777.06 55.3864 1776.91 54.8471 1776.84 54.3014C1776.8 54.0144 1776.82 53.7249 1776.79 53.4402C1776.76 53.0774 1776.51 52.7249 1776.37 52.374C1776.1 51.691 1775.93 50.9855 1775.93 50.2488C1775.92 49.8641 1775.97 49.4893 1776.01 49.1077C1776.04 48.7642 1775.95 48.4442 1775.89 48.1052C1776.51 48.2064 1777.25 48.0407 1777.83 47.8626C1778.4 47.6879 1778.93 47.2276 1779.33 46.8072C1780.26 45.8311 1780.83 44.5515 1781.22 43.2779C1782.07 40.4826 1781.72 37.129 1778.91 35.5949C1777.6 34.8802 1773.68 34.8826 1772.12 35.2358C1770.48 35.6071 1768.62 39.2264 1768.53 39.5666C1768.47 39.7771 1768.5 40.0377 1768.31 40.178C1767.88 40.4864 1767.18 39.9511 1766.87 39.6869C1766.33 39.231 1765.94 38.6243 1765.61 38.0094C1764.88 36.6696 1764.29 35.2329 1763.88 33.7663C1763.56 32.6356 1763.35 31.4695 1762.93 30.3676C1762.52 29.2712 1761.86 28.2912 1760.84 27.67C1759.73 26.9943 1758.46 26.6385 1757.25 26.2138C1756.04 25.793 1754.85 25.2787 1753.92 24.3857C1753.71 24.1894 1753.51 23.9807 1753.35 23.7495C1753.22 23.567 1753.09 23.2177 1752.89 23.102C1752.58 22.9219 1752.13 23.3901 1751.86 23.56C1750.54 24.3987 1749.44 25.5683 1748.55 26.846C1747.67 28.1167 1746.94 29.3395 1746.35 30.7584C1745.92 31.8108 1745.64 33.1586 1744.87 34.0211C1744.53 34.4062 1741.98 34.6392 1741.15 34.303C1740.33 33.9667 1739.4 33.0937 1739.12 32.5466C1738.84 31.9866 1738.77 31.3715 1738.89 30.7584C1738.97 30.3978 1739.11 30.0609 1739.19 29.7066C1739.26 29.4091 1739.32 29.1278 1739.46 28.8552C1739.74 28.3386 1740.21 27.9673 1740.77 27.8121C1740.18 27.2694 1739.7 26.6203 1739.36 25.8946C1739.01 25.1407 1738.71 24.2238 1738.63 23.3964C1738.56 22.7243 1738.66 22.028 1739.03 21.4504C1739.42 20.8445 1740.1 20.4492 1740.69 20.0713C1739.79 19.3642 1739.02 18.5044 1738.38 17.5524C1737.14 15.7011 1736.38 13.3675 1737.01 11.1604Z" fill="#191847"/>
    <path fill-rule="evenodd" clip-rule="evenodd" d="M1710.99 167.129L1680.8 192.72C1672.33 195.653 1665.33 199.054 1659.78 202.925C1658.5 204.267 1657.02 206.907 1662.66 206.074C1668.31 205.241 1674.28 204.619 1675.2 206.499C1676.11 208.379 1672.84 210.933 1674.61 213.433C1675.78 215.1 1680.46 210.387 1688.64 199.296L1719.24 184.025L1710.99 167.129ZM1847.68 156.055L1829.97 158.627C1848.98 199.876 1859.17 221.692 1860.55 224.072C1863.64 229.429 1860 238.759 1858.58 243.698C1865.76 245.771 1863.47 234.68 1872.54 237.447C1880.83 239.971 1887.67 245.695 1895.87 238.889C1896.88 238.052 1897.73 235.316 1894.52 233.722C1886.53 229.75 1874.81 222.481 1872.98 219.803C1870.5 216.15 1862.06 194.9 1847.68 156.055Z" fill="#B28B67"/>
    <path fill-rule="evenodd" clip-rule="evenodd" d="M1773.65 83.8506L1762.68 80.2212C1747.79 117.411 1725.59 153.395 1688.49 183.789L1697.66 199.615C1730.27 180.41 1761.13 165.491 1773.65 136.673C1777.86 127.001 1774 95.4156 1773.65 83.8506Z" fill="#C5CFD6"/>
    <path fill-rule="evenodd" clip-rule="evenodd" d="M1811.35 188.519C1779.91 191.852 1755.16 191.852 1737.11 188.519C1734.87 188.106 1734.52 184.361 1735.56 181.82C1751.71 142.243 1762.79 107.71 1762.79 80.2212C1765.75 81.7153 1770.94 81.9393 1778.35 80.8929C1798.26 109.221 1807.42 141.725 1811.35 188.519Z" fill="#323337"/>
    <path fill-rule="evenodd" clip-rule="evenodd" d="M1783.3 78.5187H1775C1773.07 89.8835 1766.97 243.781 1748.16 294.125H1849.96C1847.75 248.006 1830.34 192.606 1812.71 146.247C1828.3 160.518 1841.9 184.7 1853.49 218.791L1872.55 213.896C1858.38 152.8 1829.22 107.894 1785.1 79.1777C1785.01 78.957 1784.91 78.7373 1784.82 78.5187H1784.08C1783.81 78.3452 1783.54 78.1723 1783.27 78L1783.3 78.5187Z" fill="#DDE3E9"/>
</svg>
