<svg width="1963" height="1307" viewBox="0 0 1963 1307" fill="none" xmlns="http://www.w3.org/2000/svg">
    <path fill-rule="evenodd" clip-rule="evenodd" d="M1846 464L1796.92 588.227L1764 693.25H1751L1801.33 464L1846 464Z" fill="#997659"/>
    <path fill-rule="evenodd" clip-rule="evenodd" d="M1855.88 464C1856.41 507.654 1864.03 566.427 1865.25 569.149C1866.06 570.963 1894.08 594.032 1949.32 638.358L1940.37 647.939C1875.19 609.935 1841.1 588.399 1838.08 583.331C1833.55 575.728 1818.83 505.763 1807 464H1855.88Z" fill="#B28B67"/>
    <path fill-rule="evenodd" clip-rule="evenodd" d="M1950.52 635.159C1953.53 636.222 1955.6 637.23 1956.74 638.183C1958.12 639.342 1959.94 641.264 1962.2 643.948C1960.86 645.55 1948.77 659.952 1925.95 687.154C1921.3 685.162 1919.84 682.833 1921.57 680.165C1923.3 677.498 1924.72 675.264 1925.83 673.464L1933.72 645.87C1933.88 645.339 1934.43 645.032 1934.96 645.184C1934.97 645.186 1934.98 645.189 1934.99 645.192L1939.2 646.528C1942.13 645.166 1944.18 643.784 1945.35 642.384C1946.3 641.247 1947.16 639.29 1947.93 636.515L1947.93 636.515C1948.22 635.45 1949.32 634.824 1950.39 635.117C1950.43 635.129 1950.48 635.144 1950.52 635.159Z" fill="#C5CFD6"/>
    <path fill-rule="evenodd" clip-rule="evenodd" d="M1769.32 688.402C1770.44 691.388 1771 693.623 1771 695.106C1771 696.909 1770.7 699.54 1770.1 703C1768.01 703 1749.21 703 1713.7 703C1712.23 698.155 1713.08 695.539 1716.24 695.152C1719.39 694.766 1722.02 694.417 1724.1 694.106L1750.32 682.419C1750.82 682.194 1751.42 682.421 1751.64 682.925C1751.64 682.934 1751.65 682.942 1751.65 682.951L1753.34 687.039C1756.26 688.403 1758.64 689.085 1760.46 689.085C1761.95 689.085 1764 688.485 1766.62 687.286L1766.62 687.285C1767.62 686.825 1768.81 687.266 1769.27 688.27C1769.29 688.313 1769.31 688.357 1769.32 688.402Z" fill="#C5CFD6"/>
    <path fill-rule="evenodd" clip-rule="evenodd" d="M1813 682.433L1751.2 675.725L1797 464H1852.36L1813 682.433Z" fill="#A4C2DC"/>
    <path fill-rule="evenodd" clip-rule="evenodd" d="M1936.54 622.9L1896 670.886C1853.3 624.25 1828.41 593.82 1821.32 579.596C1814.23 565.372 1807.86 526.84 1802.2 464H1864.52C1867.61 519.284 1869.69 548.212 1870.77 550.785C1871.85 553.357 1893.77 577.396 1936.54 622.9Z" fill="#BED6EC"/>
    <path fill-rule="evenodd" clip-rule="evenodd" d="M1835.52 329.49C1840.13 324.081 1843.25 317.453 1842.73 310.025C1841.22 288.625 1811.43 293.333 1805.64 304.134C1799.85 314.935 1800.53 342.333 1808.02 344.263C1811.01 345.033 1817.37 343.147 1823.85 339.244L1819.78 368H1843.78L1835.52 329.49Z" fill="#B28B67"/>
    <path fill-rule="evenodd" clip-rule="evenodd" d="M1795.01 289.16C1795.5 287.413 1796.84 285.918 1798.64 285.474C1799.08 285.366 1799.53 285.323 1799.98 285.341C1800.14 285.347 1800.19 285.394 1800.26 285.281C1800.32 285.198 1800.32 284.993 1800.34 284.895C1800.41 284.59 1800.5 284.288 1800.61 283.994C1800.99 282.992 1801.62 282.105 1802.39 281.357C1803.82 279.959 1805.75 278.994 1807.75 278.82C1808.85 278.724 1809.94 278.903 1810.98 279.26C1811.51 279.444 1812.03 279.675 1812.54 279.929C1812.69 280.006 1813.19 280.381 1813.34 280.356C1813.51 280.33 1813.85 279.909 1813.99 279.803C1815.69 278.498 1817.79 277.985 1819.91 278C1822.3 278.018 1824.61 278.138 1826.6 279.596C1827.02 279.904 1827.43 280.242 1827.81 280.598C1828.01 280.786 1828.21 280.98 1828.39 281.183C1828.5 281.305 1828.61 281.43 1828.72 281.558C1828.9 281.776 1828.87 281.847 1829.12 281.695C1830.08 281.112 1831.19 280.839 1832.31 280.977C1832.98 281.059 1833.63 281.258 1834.24 281.521C1834.45 281.611 1834.93 281.968 1835.16 281.971C1835.38 281.975 1835.86 281.644 1836.08 281.56C1837.32 281.105 1838.64 280.993 1839.94 281.203C1841.27 281.42 1842.58 281.952 1843.71 282.688C1844.26 283.043 1844.73 283.435 1845.11 283.961C1845.28 284.188 1845.43 284.429 1845.61 284.64C1845.72 284.763 1845.94 284.89 1846 285.046C1845.96 284.952 1847.46 284.376 1847.6 284.339C1848.35 284.143 1849.12 284.183 1849.85 284.425C1851.24 284.88 1852.43 285.902 1853.4 286.949C1853.91 287.487 1854.35 288.081 1854.72 288.715C1854.9 289.018 1855.06 289.33 1855.21 289.649C1855.28 289.803 1855.33 289.996 1855.43 290.135C1855.55 290.315 1855.63 290.318 1855.86 290.396C1856.99 290.793 1858.02 291.465 1858.81 292.372C1859.6 293.29 1860.12 294.421 1860.34 295.612C1860.35 295.682 1860.36 295.972 1860.4 296.01C1860.45 296.063 1860.68 296.04 1860.77 296.05C1861.07 296.085 1861.36 296.137 1861.65 296.206C1862.19 296.333 1862.72 296.521 1863.21 296.767C1865.15 297.724 1866.53 299.517 1867.21 301.536C1867.92 303.655 1867.91 306.082 1867.06 308.161C1866.92 308.496 1866.76 308.822 1866.56 309.131C1866.45 309.32 1866.41 309.32 1866.49 309.519C1866.57 309.74 1866.73 309.954 1866.83 310.17C1867.16 310.875 1867.39 311.622 1867.53 312.385C1867.77 313.637 1867.89 314.952 1867.66 316.214C1867.55 316.799 1867.35 317.372 1867.06 317.893C1866.92 318.159 1866.74 318.412 1866.55 318.645C1866.44 318.766 1866.34 318.882 1866.22 318.993C1866.16 319.056 1866.07 319.111 1866.02 319.182C1865.88 319.355 1865.86 319.213 1865.93 319.466C1866.02 319.82 1866.24 320.169 1866.38 320.514C1866.51 320.869 1866.64 321.229 1866.75 321.592C1866.99 322.328 1867.18 323.077 1867.3 323.84C1867.54 325.303 1867.5 326.862 1866.81 328.205C1866.51 328.779 1866.09 329.283 1865.57 329.675C1865.32 329.867 1865.05 330.032 1864.76 330.168C1864.61 330.238 1864.42 330.268 1864.36 330.41C1864.28 330.563 1864.39 330.867 1864.42 331.038C1864.63 332.526 1864.74 334.089 1864.29 335.547C1863.89 336.891 1862.99 338.077 1861.82 338.862C1859.56 340.385 1856.52 340.299 1854.14 339.08C1853.53 338.762 1852.95 338.367 1852.43 337.902C1851.11 339.672 1848.41 339.616 1846.49 339.112C1844.09 338.483 1842.17 336.818 1841.06 334.63C1839.55 336.473 1836.37 335.875 1835.32 333.876C1835.06 333.386 1834.91 332.847 1834.84 332.301C1834.8 332.014 1834.82 331.725 1834.79 331.44C1834.76 331.077 1834.51 330.725 1834.37 330.374C1834.1 329.691 1833.93 328.985 1833.93 328.249C1833.92 327.864 1833.97 327.489 1834.01 327.108C1834.04 326.764 1833.95 326.444 1833.89 326.105C1834.51 326.206 1835.25 326.041 1835.83 325.863C1836.4 325.688 1836.93 325.228 1837.33 324.807C1838.26 323.831 1838.83 322.551 1839.22 321.278C1840.07 318.483 1839.72 315.129 1836.91 313.595C1835.6 312.88 1831.68 312.883 1830.12 313.236C1828.48 313.607 1826.62 317.226 1826.53 317.567C1826.47 317.777 1826.5 318.038 1826.31 318.178C1825.88 318.486 1825.18 317.951 1824.87 317.687C1824.33 317.231 1823.94 316.624 1823.61 316.009C1822.88 314.67 1822.29 313.233 1821.88 311.766C1821.56 310.636 1821.35 309.47 1820.93 308.368C1820.52 307.271 1819.86 306.291 1818.84 305.67C1817.73 304.994 1816.46 304.638 1815.25 304.214C1814.04 303.793 1812.85 303.279 1811.92 302.386C1811.71 302.189 1811.51 301.981 1811.35 301.75C1811.22 301.567 1811.09 301.218 1810.89 301.102C1810.58 300.922 1810.13 301.39 1809.86 301.56C1808.54 302.399 1807.44 303.568 1806.55 304.846C1805.67 306.117 1804.94 307.339 1804.35 308.758C1803.92 309.811 1803.64 311.159 1802.87 312.021C1802.53 312.406 1799.98 312.639 1799.15 312.303C1798.33 311.967 1797.4 311.094 1797.12 310.547C1796.84 309.987 1796.77 309.371 1796.89 308.758C1796.97 308.398 1797.11 308.061 1797.19 307.707C1797.26 307.409 1797.32 307.128 1797.46 306.855C1797.74 306.339 1798.21 305.967 1798.77 305.812C1798.18 305.269 1797.7 304.62 1797.36 303.895C1797.01 303.141 1796.71 302.224 1796.63 301.396C1796.56 300.724 1796.66 300.028 1797.03 299.45C1797.42 298.844 1798.1 298.449 1798.69 298.071C1797.79 297.364 1797.02 296.504 1796.38 295.552C1795.14 293.701 1794.38 291.368 1795.01 289.16Z" fill="#191847"/>
    <path fill-rule="evenodd" clip-rule="evenodd" d="M1768.99 445.129L1738.8 470.72C1730.33 473.653 1723.33 477.054 1717.78 480.925C1716.5 482.267 1715.02 484.907 1720.66 484.074C1726.31 483.241 1732.28 482.619 1733.2 484.499C1734.11 486.379 1730.84 488.933 1732.61 491.433C1733.78 493.1 1738.46 488.387 1746.64 477.296L1777.24 462.025L1768.99 445.129ZM1905.68 434.055L1887.97 436.627C1906.98 477.876 1917.17 499.692 1918.55 502.072C1921.64 507.429 1918 516.759 1916.58 521.698C1923.76 523.771 1921.47 512.68 1930.54 515.447C1938.83 517.971 1945.67 523.695 1953.87 516.889C1954.88 516.052 1955.73 513.316 1952.52 511.722C1944.53 507.75 1932.81 500.481 1930.98 497.803C1928.5 494.15 1920.06 472.9 1905.68 434.055Z" fill="#B28B67"/>
    <path fill-rule="evenodd" clip-rule="evenodd" d="M1831.65 361.851L1820.68 358.221C1805.79 395.411 1783.59 431.395 1746.49 461.789L1755.66 477.615C1788.27 458.41 1819.13 443.491 1831.65 414.673C1835.86 405.001 1832 373.416 1831.65 361.851Z" fill="#C5CFD6"/>
    <path fill-rule="evenodd" clip-rule="evenodd" d="M1869.35 466.519C1837.91 469.852 1813.16 469.852 1795.11 466.519C1792.87 466.106 1792.52 462.361 1793.56 459.82C1809.71 420.243 1820.79 385.71 1820.79 358.221C1823.75 359.715 1828.94 359.939 1836.35 358.893C1856.26 387.221 1865.42 419.725 1869.35 466.519Z" fill="#323337"/>
    <path fill-rule="evenodd" clip-rule="evenodd" d="M1841.3 356.519H1833C1831.07 367.884 1824.97 521.781 1806.16 572.125H1907.96C1905.75 526.006 1888.34 470.606 1870.71 424.247C1886.3 438.518 1899.9 462.7 1911.49 496.791L1930.55 491.896C1916.38 430.8 1887.22 385.894 1843.1 357.178C1843.01 356.957 1842.91 356.737 1842.82 356.519H1842.08C1841.81 356.345 1841.54 356.172 1841.27 356L1841.3 356.519Z" fill="#DDE3E9"/>
    <path d="M1724.81 716.279C1716.44 716.279 1708.2 716.827 1700.08 717.705C1706.48 698.504 1710.05 678.206 1710.05 657.139C1710.05 539.738 1603.41 444.611 1471.79 444.611C1415.83 444.611 1364.41 461.947 1323.7 490.803C1268.97 398.199 1160.11 335 1034.53 335C854.084 335 707.836 465.458 707.836 626.418C707.836 632.233 708.082 637.938 708.451 643.644C572.412 658.566 467 761.922 467 887.223C467 1021.3 587.664 1130.25 737.356 1132.56C787.54 1210.24 887.417 1263.56 1002.91 1264.33C1114.6 1265.1 1212.39 1216.49 1265.28 1143.64C1307.96 1185.22 1369.09 1211.56 1437.35 1211.56C1535.02 1211.56 1618.66 1157.9 1653.34 1081.98C1675.73 1089.11 1699.59 1093.28 1724.68 1093.28C1841.41 1093.28 1936 1008.9 1936 904.778C1936.12 800.654 1841.54 716.279 1724.81 716.279Z" fill="url(#paint0_radial_613_58)"/>
    <g opacity="0.2">
        <path d="M1003.04 1249.52C897.876 1249.52 802.181 1200.58 753.35 1125.09C750.152 1120.05 744.125 1116.54 737.729 1116.43C598.615 1114.23 485.454 1011.42 485.454 887.439C485.454 772.013 582.256 674.362 710.669 660.318C720.386 659.22 727.397 651.65 726.782 642.982C726.413 637.496 726.167 632.01 726.167 626.524C726.167 474.89 864.42 351.564 1034.41 351.564C1149.17 351.564 1253.72 407.851 1307.22 498.59C1309.81 502.978 1314.36 506.051 1319.77 507.038C1321 507.258 1322.35 507.367 1323.58 507.367C1327.76 507.367 1331.82 506.16 1335.02 503.746C1374.38 475.877 1421.61 461.065 1471.68 461.065C1592.95 461.065 1691.48 549.061 1691.48 657.136C1691.48 675.898 1688.4 694.66 1682.25 712.983C1680.53 718.25 1681.88 724.065 1685.82 728.235C1689.39 731.965 1694.55 734.05 1699.97 734.05C1700.7 734.05 1701.44 734.05 1702.06 733.94C1710.42 733.062 1717.8 732.623 1724.57 732.623C1830.84 732.623 1917.43 809.757 1917.43 904.665C1917.43 999.573 1830.96 1076.71 1724.57 1076.71C1702.67 1076.71 1680.78 1073.2 1659.37 1066.39C1657.28 1065.73 1655.19 1065.41 1653.1 1065.41C1645.84 1065.41 1638.96 1069.25 1636 1075.61C1602.79 1148.13 1524.69 1194.99 1436.99 1194.99C1376.96 1194.99 1319.15 1172.16 1278.44 1132.34C1274.87 1128.93 1269.95 1126.96 1264.79 1126.96H1263.31C1257.65 1127.4 1252.49 1130.91 1249.41 1135.3C1198.61 1205.19 1105.13 1249.41 1005.26 1249.41H1003.04V1249.52Z" fill="url(#paint1_radial_613_58)"/>
    </g>
    <path fill-rule="evenodd" clip-rule="evenodd" d="M1846 464L1796.92 588.227L1764 693.25H1751L1801.33 464L1846 464Z" fill="#997659"/>
    <path fill-rule="evenodd" clip-rule="evenodd" d="M1855.88 464C1856.41 507.654 1864.03 566.427 1865.25 569.149C1866.06 570.963 1894.08 594.032 1949.32 638.358L1940.37 647.939C1875.19 609.935 1841.1 588.399 1838.08 583.331C1833.55 575.728 1818.83 505.763 1807 464H1855.88Z" fill="#B28B67"/>
    <path fill-rule="evenodd" clip-rule="evenodd" d="M1950.52 635.159C1953.53 636.222 1955.6 637.23 1956.74 638.183C1958.12 639.342 1959.94 641.264 1962.2 643.948C1960.86 645.55 1948.77 659.952 1925.95 687.154C1921.3 685.162 1919.84 682.833 1921.57 680.165C1923.3 677.498 1924.72 675.264 1925.83 673.464L1933.72 645.87C1933.88 645.339 1934.43 645.032 1934.96 645.184C1934.97 645.186 1934.98 645.189 1934.99 645.192L1939.2 646.528C1942.13 645.166 1944.18 643.784 1945.35 642.384C1946.3 641.247 1947.16 639.29 1947.93 636.515L1947.93 636.515C1948.22 635.45 1949.32 634.824 1950.39 635.117C1950.43 635.129 1950.48 635.144 1950.52 635.159Z" fill="#C5CFD6"/>
    <path fill-rule="evenodd" clip-rule="evenodd" d="M1769.32 688.402C1770.44 691.388 1771 693.623 1771 695.106C1771 696.909 1770.7 699.54 1770.1 703C1768.01 703 1749.21 703 1713.7 703C1712.23 698.155 1713.08 695.539 1716.24 695.152C1719.39 694.766 1722.02 694.417 1724.1 694.106L1750.32 682.419C1750.82 682.194 1751.42 682.421 1751.64 682.925C1751.64 682.934 1751.65 682.942 1751.65 682.951L1753.34 687.039C1756.26 688.403 1758.64 689.085 1760.46 689.085C1761.95 689.085 1764 688.485 1766.62 687.286L1766.62 687.285C1767.62 686.825 1768.81 687.266 1769.27 688.27C1769.29 688.313 1769.31 688.357 1769.32 688.402Z" fill="#C5CFD6"/>
    <path fill-rule="evenodd" clip-rule="evenodd" d="M1813 682.433L1751.2 675.725L1797 464H1852.36L1813 682.433Z" fill="#A4C2DC"/>
    <path fill-rule="evenodd" clip-rule="evenodd" d="M1936.54 622.9L1896 670.886C1853.3 624.25 1828.41 593.82 1821.32 579.596C1814.23 565.372 1807.86 526.84 1802.2 464H1864.52C1867.61 519.284 1869.69 548.212 1870.77 550.785C1871.85 553.357 1893.77 577.396 1936.54 622.9Z" fill="#BED6EC"/>
    <path fill-rule="evenodd" clip-rule="evenodd" d="M1835.52 329.49C1840.13 324.081 1843.25 317.453 1842.73 310.025C1841.22 288.625 1811.43 293.333 1805.64 304.134C1799.85 314.935 1800.53 342.333 1808.02 344.263C1811.01 345.033 1817.37 343.147 1823.85 339.244L1819.78 368H1843.78L1835.52 329.49Z" fill="#B28B67"/>
    <path fill-rule="evenodd" clip-rule="evenodd" d="M1795.01 289.16C1795.5 287.413 1796.84 285.918 1798.64 285.474C1799.08 285.366 1799.53 285.323 1799.98 285.341C1800.14 285.347 1800.19 285.394 1800.26 285.281C1800.32 285.198 1800.32 284.993 1800.34 284.895C1800.41 284.59 1800.5 284.288 1800.61 283.994C1800.99 282.992 1801.62 282.105 1802.39 281.357C1803.82 279.959 1805.75 278.994 1807.75 278.82C1808.85 278.724 1809.94 278.903 1810.98 279.26C1811.51 279.444 1812.03 279.675 1812.54 279.929C1812.69 280.006 1813.19 280.381 1813.34 280.356C1813.51 280.33 1813.85 279.909 1813.99 279.803C1815.69 278.498 1817.79 277.985 1819.91 278C1822.3 278.018 1824.61 278.138 1826.6 279.596C1827.02 279.904 1827.43 280.242 1827.81 280.598C1828.01 280.786 1828.21 280.98 1828.39 281.183C1828.5 281.305 1828.61 281.43 1828.72 281.558C1828.9 281.776 1828.87 281.847 1829.12 281.695C1830.08 281.112 1831.19 280.839 1832.31 280.977C1832.98 281.059 1833.63 281.258 1834.24 281.521C1834.45 281.611 1834.93 281.968 1835.16 281.971C1835.38 281.975 1835.86 281.644 1836.08 281.56C1837.32 281.105 1838.64 280.993 1839.94 281.203C1841.27 281.42 1842.58 281.952 1843.71 282.688C1844.26 283.043 1844.73 283.435 1845.11 283.961C1845.28 284.188 1845.43 284.429 1845.61 284.64C1845.72 284.763 1845.94 284.89 1846 285.046C1845.96 284.952 1847.46 284.376 1847.6 284.339C1848.35 284.143 1849.12 284.183 1849.85 284.425C1851.24 284.88 1852.43 285.902 1853.4 286.949C1853.91 287.487 1854.35 288.081 1854.72 288.715C1854.9 289.018 1855.06 289.33 1855.21 289.649C1855.28 289.803 1855.33 289.996 1855.43 290.135C1855.55 290.315 1855.63 290.318 1855.86 290.396C1856.99 290.793 1858.02 291.465 1858.81 292.372C1859.6 293.29 1860.12 294.421 1860.34 295.612C1860.35 295.682 1860.36 295.972 1860.4 296.01C1860.45 296.063 1860.68 296.04 1860.77 296.05C1861.07 296.085 1861.36 296.137 1861.65 296.206C1862.19 296.333 1862.72 296.521 1863.21 296.767C1865.15 297.724 1866.53 299.517 1867.21 301.536C1867.92 303.655 1867.91 306.082 1867.06 308.161C1866.92 308.496 1866.76 308.822 1866.56 309.131C1866.45 309.32 1866.41 309.32 1866.49 309.519C1866.57 309.74 1866.73 309.954 1866.83 310.17C1867.16 310.875 1867.39 311.622 1867.53 312.385C1867.77 313.637 1867.89 314.952 1867.66 316.214C1867.55 316.799 1867.35 317.372 1867.06 317.893C1866.92 318.159 1866.74 318.412 1866.55 318.645C1866.44 318.766 1866.34 318.882 1866.22 318.993C1866.16 319.056 1866.07 319.111 1866.02 319.182C1865.88 319.355 1865.86 319.213 1865.93 319.466C1866.02 319.82 1866.24 320.169 1866.38 320.514C1866.51 320.869 1866.64 321.229 1866.75 321.592C1866.99 322.328 1867.18 323.077 1867.3 323.84C1867.54 325.303 1867.5 326.862 1866.81 328.205C1866.51 328.779 1866.09 329.283 1865.57 329.675C1865.32 329.867 1865.05 330.032 1864.76 330.168C1864.61 330.238 1864.42 330.268 1864.36 330.41C1864.28 330.563 1864.39 330.867 1864.42 331.038C1864.63 332.526 1864.74 334.089 1864.29 335.547C1863.89 336.891 1862.99 338.077 1861.82 338.862C1859.56 340.385 1856.52 340.299 1854.14 339.08C1853.53 338.762 1852.95 338.367 1852.43 337.902C1851.11 339.672 1848.41 339.616 1846.49 339.112C1844.09 338.483 1842.17 336.818 1841.06 334.63C1839.55 336.473 1836.37 335.875 1835.32 333.876C1835.06 333.386 1834.91 332.847 1834.84 332.301C1834.8 332.014 1834.82 331.725 1834.79 331.44C1834.76 331.077 1834.51 330.725 1834.37 330.374C1834.1 329.691 1833.93 328.985 1833.93 328.249C1833.92 327.864 1833.97 327.489 1834.01 327.108C1834.04 326.764 1833.95 326.444 1833.89 326.105C1834.51 326.206 1835.25 326.041 1835.83 325.863C1836.4 325.688 1836.93 325.228 1837.33 324.807C1838.26 323.831 1838.83 322.551 1839.22 321.278C1840.07 318.483 1839.72 315.129 1836.91 313.595C1835.6 312.88 1831.68 312.883 1830.12 313.236C1828.48 313.607 1826.62 317.226 1826.53 317.567C1826.47 317.777 1826.5 318.038 1826.31 318.178C1825.88 318.486 1825.18 317.951 1824.87 317.687C1824.33 317.231 1823.94 316.624 1823.61 316.009C1822.88 314.67 1822.29 313.233 1821.88 311.766C1821.56 310.636 1821.35 309.47 1820.93 308.368C1820.52 307.271 1819.86 306.291 1818.84 305.67C1817.73 304.994 1816.46 304.638 1815.25 304.214C1814.04 303.793 1812.85 303.279 1811.92 302.386C1811.71 302.189 1811.51 301.981 1811.35 301.75C1811.22 301.567 1811.09 301.218 1810.89 301.102C1810.58 300.922 1810.13 301.39 1809.86 301.56C1808.54 302.399 1807.44 303.568 1806.55 304.846C1805.67 306.117 1804.94 307.339 1804.35 308.758C1803.92 309.811 1803.64 311.159 1802.87 312.021C1802.53 312.406 1799.98 312.639 1799.15 312.303C1798.33 311.967 1797.4 311.094 1797.12 310.547C1796.84 309.987 1796.77 309.371 1796.89 308.758C1796.97 308.398 1797.11 308.061 1797.19 307.707C1797.26 307.409 1797.32 307.128 1797.46 306.855C1797.74 306.339 1798.21 305.967 1798.77 305.812C1798.18 305.269 1797.7 304.62 1797.36 303.895C1797.01 303.141 1796.71 302.224 1796.63 301.396C1796.56 300.724 1796.66 300.028 1797.03 299.45C1797.42 298.844 1798.1 298.449 1798.69 298.071C1797.79 297.364 1797.02 296.504 1796.38 295.552C1795.14 293.701 1794.38 291.368 1795.01 289.16Z" fill="#191847"/>
    <path fill-rule="evenodd" clip-rule="evenodd" d="M1768.99 445.129L1738.8 470.72C1730.33 473.653 1723.33 477.054 1717.78 480.925C1716.5 482.267 1715.02 484.907 1720.66 484.074C1726.31 483.241 1732.28 482.619 1733.2 484.499C1734.11 486.379 1730.84 488.933 1732.61 491.433C1733.78 493.1 1738.46 488.387 1746.64 477.296L1777.24 462.025L1768.99 445.129ZM1905.68 434.055L1887.97 436.627C1906.98 477.876 1917.17 499.692 1918.55 502.072C1921.64 507.429 1918 516.759 1916.58 521.698C1923.76 523.771 1921.47 512.68 1930.54 515.447C1938.83 517.971 1945.67 523.695 1953.87 516.889C1954.88 516.052 1955.73 513.316 1952.52 511.722C1944.53 507.75 1932.81 500.481 1930.98 497.803C1928.5 494.15 1920.06 472.9 1905.68 434.055Z" fill="#B28B67"/>
    <path fill-rule="evenodd" clip-rule="evenodd" d="M1831.65 361.851L1820.68 358.221C1805.79 395.411 1783.59 431.395 1746.49 461.789L1755.66 477.615C1788.27 458.41 1819.13 443.491 1831.65 414.673C1835.86 405.001 1832 373.416 1831.65 361.851Z" fill="#C5CFD6"/>
    <path fill-rule="evenodd" clip-rule="evenodd" d="M1869.35 466.519C1837.91 469.852 1813.16 469.852 1795.11 466.519C1792.87 466.106 1792.52 462.361 1793.56 459.82C1809.71 420.243 1820.79 385.71 1820.79 358.221C1823.75 359.715 1828.94 359.939 1836.35 358.893C1856.26 387.221 1865.42 419.725 1869.35 466.519Z" fill="#323337"/>
    <path fill-rule="evenodd" clip-rule="evenodd" d="M1841.3 356.519H1833C1831.07 367.884 1824.97 521.781 1806.16 572.125H1907.96C1905.75 526.006 1888.34 470.606 1870.71 424.247C1886.3 438.518 1899.9 462.7 1911.49 496.791L1930.55 491.896C1916.38 430.8 1887.22 385.894 1843.1 357.178C1843.01 356.957 1842.91 356.737 1842.82 356.519H1842.08C1841.81 356.345 1841.54 356.172 1841.27 356L1841.3 356.519V356.519Z" fill="#DDE3E9"/>
    <g opacity="0.2">
        <path d="M585.679 1306.57C516.864 1306.57 454.247 1274.55 422.295 1225.15C420.203 1221.85 416.259 1219.55 412.074 1219.48C321.046 1218.04 247 1150.77 247 1069.64C247 994.117 310.341 930.219 394.367 921.03C400.725 920.312 405.313 915.358 404.91 909.686C404.669 906.097 404.508 902.507 404.508 898.917C404.508 799.697 494.973 719 606.202 719C681.294 719 749.706 755.831 784.717 815.205C786.407 818.076 789.385 820.087 792.926 820.733C793.731 820.876 794.616 820.948 795.421 820.948C798.158 820.948 800.813 820.158 802.906 818.579C828.661 800.343 859.567 790.651 892.324 790.651C971.682 790.651 1036.15 848.23 1036.15 918.948C1036.15 931.225 1034.14 943.501 1030.11 955.491C1028.99 958.937 1029.87 962.742 1032.45 965.471C1034.78 967.912 1038.16 969.276 1041.7 969.276C1042.19 969.276 1042.67 969.276 1043.07 969.204C1048.54 968.63 1053.37 968.342 1057.8 968.342C1127.34 968.342 1184 1018.81 1184 1080.92C1184 1143.02 1127.42 1193.49 1057.8 1193.49C1043.47 1193.49 1029.15 1191.19 1015.14 1186.74C1013.78 1186.31 1012.41 1186.1 1011.04 1186.1C1006.29 1186.1 1001.78 1188.61 999.852 1192.77C978.121 1240.23 927.013 1270.88 869.628 1270.88C830.351 1270.88 792.524 1255.95 765.883 1229.89C763.549 1227.66 760.33 1226.37 756.949 1226.37H755.984C752.281 1226.66 748.901 1228.96 746.889 1231.83C713.649 1277.56 652.481 1306.49 587.127 1306.49H585.679V1306.57Z" fill="url(#paint2_radial_613_58)"/>
    </g>
    <path d="M350.968 987C279.657 987 214.768 953.812 181.656 902.615C179.487 899.192 175.401 896.811 171.063 896.737C76.7325 895.248 0 825.523 0 741.436C0 663.153 65.6397 596.924 152.714 587.4C159.303 586.655 164.057 581.521 163.64 575.642C163.39 571.922 163.223 568.201 163.223 564.48C163.223 461.641 256.971 378 372.236 378C450.053 378 520.947 416.174 557.228 477.714C558.98 480.691 562.066 482.774 565.736 483.444C566.57 483.593 567.487 483.667 568.321 483.667C571.157 483.667 573.909 482.849 576.078 481.212C602.767 462.31 634.795 452.265 668.741 452.265C750.978 452.265 817.785 511.944 817.785 585.242C817.785 597.966 815.7 610.691 811.53 623.118C810.362 626.69 811.28 630.634 813.949 633.462C816.367 635.992 819.87 637.405 823.54 637.405C824.041 637.405 824.541 637.405 824.958 637.331C830.63 636.736 835.634 636.438 840.221 636.438C912.283 636.438 971 688.751 971 753.118C971 817.486 912.366 869.799 840.221 869.799C825.375 869.799 810.529 867.418 796.017 862.804C794.599 862.357 793.181 862.134 791.763 862.134C786.842 862.134 782.171 864.739 780.17 869.055C757.65 918.242 704.688 950.017 645.22 950.017C604.519 950.017 565.319 934.539 537.711 907.526C535.293 905.22 531.957 903.88 528.454 903.88H527.453C523.616 904.178 520.113 906.559 518.028 909.536C483.582 956.937 420.194 986.926 352.469 986.926H350.968V987Z" fill="url(#paint3_radial_613_58)"/>
    <path d="M289.292 488C244.126 488 203.027 466.964 182.055 434.515C180.681 432.345 178.093 430.836 175.346 430.789C115.6 429.845 67 385.652 67 332.355C67 282.737 108.574 240.76 163.724 234.723C167.898 234.251 170.909 230.997 170.645 227.271C170.486 224.913 170.38 222.554 170.38 220.196C170.38 155.014 229.757 102 302.762 102C352.049 102 396.951 126.196 419.93 165.201C421.04 167.088 422.994 168.409 425.319 168.833C425.847 168.927 426.428 168.975 426.956 168.975C428.752 168.975 430.496 168.456 431.869 167.418C448.773 155.438 469.058 149.071 490.559 149.071C542.645 149.071 584.959 186.897 584.959 233.355C584.959 241.42 583.638 249.486 580.997 257.362C580.257 259.626 580.838 262.126 582.529 263.918C584.061 265.522 586.279 266.418 588.604 266.418C588.921 266.418 589.238 266.418 589.502 266.371C593.094 265.993 596.263 265.805 599.169 265.805C644.811 265.805 682 298.962 682 339.76C682 380.558 644.863 413.715 599.169 413.715C589.766 413.715 580.363 412.206 571.171 409.281C570.273 408.998 569.375 408.857 568.477 408.857C565.36 408.857 562.402 410.508 561.134 413.243C546.871 444.419 513.327 464.559 475.662 464.559C449.883 464.559 425.054 454.749 407.569 437.628C406.037 436.165 403.924 435.316 401.705 435.316H401.071C398.641 435.505 396.423 437.014 395.102 438.901C373.285 468.945 333.137 487.953 290.243 487.953H289.292V488Z" fill="url(#paint4_radial_613_58)"/>
    <path d="M156.773 248C127.764 248 101.367 234.485 87.8971 213.636C87.0149 212.242 85.3524 211.273 83.5881 211.242C45.2146 210.636 14 182.242 14 148C14 116.121 40.702 89.1515 76.1238 85.2727C78.8042 84.9697 80.7381 82.8788 80.5685 80.4849C80.4667 78.9697 80.3988 77.4546 80.3988 75.9394C80.3988 34.0606 118.535 0 165.425 0C197.08 0 225.92 15.5455 240.679 40.6061C241.391 41.8182 242.647 42.6667 244.14 42.9394C244.479 43 244.852 43.0303 245.191 43.0303C246.345 43.0303 247.465 42.697 248.347 42.0303C259.204 34.3333 272.233 30.2424 286.042 30.2424C319.496 30.2424 346.673 54.5455 346.673 84.3939C346.673 89.5758 345.824 94.7576 344.128 99.8182C343.653 101.273 344.026 102.879 345.112 104.03C346.096 105.061 347.521 105.636 349.014 105.636C349.217 105.636 349.421 105.636 349.591 105.606C351.898 105.364 353.933 105.242 355.8 105.242C385.114 105.242 409 126.545 409 152.758C409 178.97 385.148 200.273 355.8 200.273C349.76 200.273 343.721 199.303 337.817 197.424C337.24 197.242 336.664 197.152 336.087 197.152C334.085 197.152 332.185 198.212 331.371 199.97C322.21 220 300.665 232.939 276.474 232.939C259.917 232.939 243.97 226.636 232.739 215.636C231.756 214.697 230.398 214.152 228.973 214.152H228.566C227.005 214.273 225.58 215.242 224.732 216.455C210.72 235.758 184.934 247.97 157.383 247.97H156.773V248Z" fill="url(#paint5_radial_613_58)"/>
    <defs>
        <radialGradient id="paint0_radial_613_58" cx="0" cy="0" r="1" gradientUnits="userSpaceOnUse" gradientTransform="translate(866.943 304.385) scale(1403.89 1263.42)">
            <stop offset="0.1402" stop-color="#E3F2FD" stop-opacity="0.12"/>
            <stop offset="1" stop-color="#90CAF9" stop-opacity="0.37"/>
        </radialGradient>
        <radialGradient id="paint1_radial_613_58" cx="0" cy="0" r="1" gradientUnits="userSpaceOnUse" gradientTransform="translate(875.318 321.984) scale(1368.51 1220.75)">
            <stop offset="0.1402" stop-color="#E3F2FD" stop-opacity="0.12"/>
            <stop offset="1" stop-color="#90CAF9" stop-opacity="0.37"/>
        </radialGradient>
        <radialGradient id="paint2_radial_613_58" cx="0" cy="0" r="1" gradientUnits="userSpaceOnUse" gradientTransform="translate(502.104 699.644) scale(895.47 798.786)">
            <stop offset="0.1402" stop-color="#E3F2FD" stop-opacity="0.12"/>
            <stop offset="1" stop-color="#90CAF9" stop-opacity="0.26"/>
        </radialGradient>
        <radialGradient id="paint3_radial_613_58" cx="0" cy="0" r="1" gradientUnits="userSpaceOnUse" gradientTransform="translate(264.36 357.938) scale(927.963 827.925)">
            <stop offset="0.1402" stop-color="#E3F2FD" stop-opacity="0.12"/>
            <stop offset="1" stop-color="#90CAF9" stop-opacity="0.28"/>
        </radialGradient>
        <radialGradient id="paint4_radial_613_58" cx="0" cy="0" r="1" gradientUnits="userSpaceOnUse" gradientTransform="translate(234.437 89.2842) scale(587.742 524.76)">
            <stop stop-color="white" stop-opacity="0"/>
            <stop offset="1" stop-color="#90CAF9" stop-opacity="0.24"/>
        </radialGradient>
        <radialGradient id="paint5_radial_613_58" cx="0" cy="0" r="1" gradientUnits="userSpaceOnUse" gradientTransform="translate(121.541 -8.16971) scale(377.493 337.152)">
            <stop stop-color="#E3F2FD" stop-opacity="0"/>
            <stop offset="1" stop-color="#90CAF9" stop-opacity="0.35"/>
        </radialGradient>
    </defs>
</svg>
